<svg width="41" height="40" viewBox="0 0 41 40" fill="none" xmlns="http://www.w3.org/2000/svg">
<path d="M8 22.5H33M8 22.5L11.9075 36.6666H29.0933L33 22.5M8 22.5C8 17.9166 12.5833 15.8333 12.5833 15.8333C12.5833 14.1666 14.25 9.16663 20.5 9.16663C26.75 9.16663 28.4167 14.1666 28.4167 15.8333C28.4167 15.8333 33 17.9166 33 22.5" stroke="black" stroke-width="4" stroke-linecap="round" stroke-linejoin="round"/>
<path d="M5.5 22.5H35.5" stroke="black" stroke-width="4" stroke-linecap="round"/>
<path d="M23.8333 9.99996C23.8333 9.1159 23.4821 8.26806 22.857 7.64294C22.2319 7.01782 21.384 6.66663 20.5 6.66663C19.6159 6.66663 18.7681 7.01782 18.1429 7.64294C17.5178 8.26806 17.1666 9.1159 17.1666 9.99996" stroke="black" stroke-width="4"/>
<path d="M20.5 6.66665L23.8333 3.33331" stroke="black" stroke-width="4" stroke-linecap="round"/>
<path d="M17.1666 22.5V36.6667M23.8333 22.5V36.6667" stroke="black" stroke-width="4"/>
</svg>
